<svg width="89" height="46" viewBox="0 0 89 46" fill="none" xmlns="http://www.w3.org/2000/svg">
<path d="M44.7404 21.3533C44.3224 20.7432 44.1225 20.022 44.1699 19.2962V16.3135C44.1699 15.3992 44.359 14.7044 44.7372 14.2291C45.1154 13.7537 45.7649 13.517 46.6857 13.5191C47.551 13.5191 48.1653 13.7213 48.5285 14.1259C48.9246 14.6421 49.1174 15.2733 49.0733 15.91V16.6109H47.5254V15.9009C47.5309 15.6685 47.5159 15.4361 47.4805 15.2061C47.4582 15.0488 47.3803 14.9033 47.2594 14.7934C47.1004 14.675 46.9002 14.6175 46.6985 14.6326C46.4865 14.6176 46.2761 14.6782 46.1088 14.8025C45.974 14.9243 45.8841 15.0838 45.8525 15.2576C45.8081 15.5011 45.7877 15.7479 45.7916 15.995V19.6147C45.7672 19.964 45.8355 20.3134 45.9903 20.6312C46.0673 20.7387 46.1742 20.824 46.2992 20.8775C46.4242 20.9311 46.5624 20.9508 46.6985 20.9346C46.8968 20.9501 47.0936 20.8912 47.2465 20.7708C47.3727 20.6523 47.4538 20.4976 47.4773 20.3308C47.5134 20.0907 47.5295 19.8482 47.5254 19.6056V18.8714H49.0733V19.5419C49.1167 20.2056 48.9287 20.8644 48.5381 21.4171C48.1823 21.86 47.5766 22.0815 46.6857 22.0815C45.7948 22.0815 45.1218 21.8449 44.7404 21.3533Z" fill="#AFB1B8"/>
<path d="M51.1856 21.3837C50.7946 20.9194 50.5991 20.2428 50.5991 19.3477V16.2104C50.5991 15.3244 50.7946 14.6538 51.1856 14.1987C51.5767 13.7436 52.2305 13.517 53.1471 13.5191C54.0574 13.5191 54.708 13.7456 55.099 14.1987C55.49 14.6538 55.6887 15.3244 55.6887 16.2104V19.3477C55.6887 20.2337 55.49 20.9134 55.0926 21.3806C54.6952 21.8479 54.0477 22.0815 53.1471 22.0815C52.2465 22.0815 51.5799 21.8449 51.1856 21.3837ZM53.8683 20.6312C54.0083 20.3404 54.0721 20.0219 54.0542 19.7027V15.8615C54.0721 15.5485 54.0094 15.2361 53.8715 14.9512C53.7929 14.8414 53.6834 14.7547 53.5553 14.7011C53.4272 14.6474 53.2858 14.629 53.1471 14.6478C53.0081 14.6294 52.8663 14.6481 52.7379 14.7017C52.6094 14.7553 52.4992 14.8417 52.4196 14.9512C52.2786 15.2353 52.2147 15.5481 52.2337 15.8615V19.7209C52.2142 20.0402 52.2781 20.3591 52.4196 20.6494C52.5098 20.7473 52.6212 20.8257 52.7461 20.8795C52.871 20.9332 53.0067 20.961 53.1439 20.961C53.2812 20.961 53.4168 20.9332 53.5417 20.8795C53.6667 20.8257 53.778 20.7473 53.8683 20.6494V20.6312Z" fill="#AFB1B8"/>
<path d="M57.55 13.6106H59.2166L60.4697 19.3992L61.7517 13.6106H63.3734L63.5369 21.9658H62.3382L62.21 16.159L60.9729 21.9658H60.0114L58.7295 16.1378L58.6109 21.9658H57.3994L57.55 13.6106Z" fill="#AFB1B8"/>
<path d="M65.4056 13.6106H68.0017C69.4974 13.6106 70.2452 14.4014 70.2452 15.9831C70.2452 17.498 69.4579 18.2544 67.8831 18.2524H66.9985V21.9658H65.396L65.4056 13.6106ZM67.6235 17.1814C67.7818 17.2005 67.9427 17.1867 68.0948 17.1411C68.247 17.0956 68.3869 17.0193 68.5049 16.9175C68.6887 16.6353 68.7697 16.3039 68.7357 15.974C68.744 15.7191 68.7182 15.4642 68.6587 15.2155C68.6359 15.1324 68.5958 15.0545 68.5407 14.9863C68.4857 14.918 68.4169 14.8608 68.3382 14.8181C68.1158 14.7171 67.8698 14.6711 67.6235 14.6846H67.0017V17.1814H67.6235Z" fill="#AFB1B8"/>
<path d="M72.5559 13.6106H74.277L76.0428 21.9658H74.5494L74.2 20.0393H72.6649L72.3059 21.9658H70.79L72.5559 13.6106ZM74.027 19.0715L73.4277 15.5644L72.8283 19.0715H74.027Z" fill="#AFB1B8"/>
<path d="M77.469 13.6106H78.5907L80.738 18.3768V13.6106H82.068V21.9658H81.0008L78.8407 16.9903V21.9658H77.4658L77.469 13.6106Z" fill="#AFB1B8"/>
<path d="M85.1836 18.78L83.3984 13.6221H84.9016L85.9913 16.9353L87.0137 13.6221H88.4847L86.722 18.78V21.9658H85.1836V18.78Z" fill="#AFB1B8"/>
<path d="M47.2146 25.6189V26.0558H45.907V29.4509H45.3589V26.0558H44.0449V25.6189H47.2146Z" fill="#AFB1B8"/>
<path d="M51.3141 29.4512H50.891C50.8481 29.4537 50.8057 29.4407 50.7724 29.4148C50.7404 29.3925 50.7159 29.362 50.7019 29.3268L50.3238 28.4166H48.5097L48.1316 29.3268C48.1208 29.3649 48.1011 29.4001 48.0739 29.43C48.0403 29.4554 47.9982 29.4683 47.9553 29.4664H47.5322L49.1347 25.6345H49.6924L51.3141 29.4512ZM48.6604 28.0283H50.1731L49.5321 26.4688C49.4848 26.3509 49.4452 26.2303 49.4135 26.1078C49.3911 26.1806 49.3719 26.2504 49.3526 26.3111L49.295 26.4719L48.6604 28.0283Z" fill="#AFB1B8"/>
<path d="M54.0761 29.0748C54.1764 29.0798 54.277 29.0798 54.3773 29.0748C54.464 29.0664 54.5497 29.0511 54.6337 29.0293C54.7122 29.0111 54.7893 28.9877 54.8645 28.9595C54.935 28.9322 55.0055 28.8988 55.0792 28.8654V28.0036H54.4382C54.4224 28.0045 54.4065 28.0022 54.3916 27.997C54.3767 27.9918 54.3631 27.9837 54.3517 27.9733C54.3412 27.9647 54.3328 27.9539 54.3273 27.9418C54.3217 27.9298 54.3191 27.9166 54.3196 27.9035V27.6091H55.5631V29.0778C55.4616 29.1466 55.3544 29.2075 55.2426 29.2599C55.1284 29.3133 55.0093 29.357 54.8869 29.3904C54.7558 29.4269 54.6219 29.4533 54.4863 29.4693C54.3309 29.4856 54.1747 29.4937 54.0184 29.4936C53.742 29.4958 53.4678 29.4473 53.2108 29.351C52.9708 29.2596 52.7528 29.1234 52.5698 28.9504C52.3914 28.7757 52.2509 28.5695 52.1564 28.3435C52.0554 28.0895 52.0054 27.8198 52.009 27.5484C52.0056 27.2754 52.0545 27.0039 52.1532 26.7473C52.2454 26.5202 52.3861 26.3136 52.5666 26.1404C52.7495 25.968 52.9676 25.8328 53.2076 25.7429C53.482 25.6452 53.7733 25.5968 54.0665 25.6003C54.2157 25.6001 54.3646 25.6113 54.5119 25.6337C54.6422 25.6537 54.77 25.6863 54.8933 25.7308C55.0054 25.7706 55.1128 25.8215 55.2138 25.8825C55.312 25.9424 55.4052 26.0093 55.4926 26.0828L55.3388 26.3195C55.3267 26.3411 55.3088 26.3592 55.2868 26.3721C55.2648 26.3849 55.2396 26.3919 55.2138 26.3923C55.1783 26.3912 55.1439 26.3807 55.1144 26.3619C55.0664 26.3377 55.0151 26.3073 54.9574 26.2709C54.8893 26.2305 54.8174 26.1959 54.7427 26.1677C54.6472 26.1315 54.5485 26.103 54.4478 26.0828C54.3136 26.0594 54.1773 26.0482 54.0408 26.0494C53.8294 26.0472 53.6194 26.0832 53.4223 26.1556C53.244 26.2233 53.0832 26.3269 52.9512 26.459C52.8184 26.5968 52.7169 26.759 52.6531 26.9355C52.51 27.3505 52.51 27.7979 52.6531 28.213C52.7233 28.3932 52.8324 28.5576 52.9736 28.6955C53.1051 28.827 53.2646 28.9304 53.4415 28.999C53.6453 29.0652 53.8613 29.091 54.0761 29.0748Z" fill="#AFB1B8"/>
<path d="M59.1851 29.014H60.9348V29.4509H58.6499V25.6189H59.1979L59.1851 29.014Z" fill="#AFB1B8"/>
<path d="M62.7555 29.4509H62.2075V25.6189H62.7555V29.4509Z" fill="#AFB1B8"/>
<path d="M64.7935 25.6371C64.826 25.6547 64.8544 25.6785 64.8768 25.7069L67.2198 28.5955C67.2166 28.5501 67.2166 28.5045 67.2198 28.459C67.2198 28.4165 67.2198 28.374 67.2198 28.3346V25.6038H67.6974V29.4512H67.4217C67.3809 29.4543 67.3399 29.447 67.3031 29.43C67.2699 29.4109 67.2405 29.3862 67.2166 29.3571L64.8768 26.4716C64.8768 26.5171 64.8768 26.5595 64.8768 26.602C64.8768 26.6445 64.8768 26.684 64.8768 26.7204V29.4512H64.4185V25.6189H64.7037C64.7347 25.619 64.7652 25.6252 64.7935 25.6371Z" fill="#AFB1B8"/>
<path d="M71.7324 25.6189V26.0406H69.7905V27.3059H71.3639V27.7124H69.7905V29.0202H71.7324V29.4419H69.2266V25.6189H71.7324Z" fill="#AFB1B8"/>
<path d="M14.3035 1.95391L38.6387 8.49527V31.4173L14.3035 24.879V1.95391ZM12.7427 0V25.9925L40.1963 33.3743V7.38482L12.7427 0Z" fill="#AFB1B8"/>
<path d="M27.4564 45.4404L0 38.0524V12.0625L27.4564 19.4475V45.4404Z" fill="#AFB1B8"/>
<path d="M13.1978 1.65958L37.2155 8.11891L27.0014 17.7912L2.98057 11.3288L13.1978 1.65958ZM12.7427 0L0 12.0631L27.4565 19.4478L40.196 7.38469L12.7427 0Z" fill="#AFB1B8"/>
<path d="M29.001 43.978L40.1958 33.3773L29.001 30.3645V43.978Z" fill="#AFB1B8"/>
</svg>
